<svg width="55" height="55" viewBox="0 0 55 55" fill="none" xmlns="http://www.w3.org/2000/svg">
<rect x="0.5" y="0.48877" width="54" height="54" rx="27" fill="#345B14"/>
<g clip-path="url(#clip0_488_2432)">
<path d="M31.875 14.8638V16.6138" stroke="white" stroke-width="1.5" stroke-linecap="round" stroke-linejoin="round"/>
<path d="M36.25 16.2878L35.375 17.7217" stroke="white" stroke-width="1.5" stroke-linecap="round" stroke-linejoin="round"/>
<path d="M39.2754 20.1138L37.6304 20.6442" stroke="white" stroke-width="1.5" stroke-linecap="round" stroke-linejoin="round"/>
<path d="M22.6372 24.8168L22.0105 23.7231C21.7494 23.2708 21.3194 22.9408 20.815 22.8056C20.3106 22.6705 19.7732 22.7412 19.321 23.0023C18.8687 23.2633 18.5387 23.6934 18.4035 24.1978C18.2684 24.7021 18.3391 25.2396 18.6002 25.6918L20.6783 29.2913" stroke="white" stroke-width="1.5" stroke-linecap="round" stroke-linejoin="round"/>
<path d="M25.482 29.7389L22.6383 24.817C22.5034 24.5929 22.4145 24.3442 22.3768 24.0854C22.3391 23.8265 22.3533 23.5628 22.4187 23.3095C22.484 23.0562 22.5992 22.8185 22.7575 22.6103C22.9157 22.402 23.1139 22.2274 23.3404 22.0966C23.5669 21.9658 23.8172 21.8815 24.0767 21.8485C24.3362 21.8155 24.5996 21.8345 24.8516 21.9045C25.1037 21.9745 25.3392 22.094 25.5446 22.256C25.7499 22.4181 25.9209 22.6194 26.0475 22.8482L30.0342 29.7389" stroke="white" stroke-width="1.5" stroke-linecap="round" stroke-linejoin="round"/>
<path d="M24.6564 20.4418L24.0307 19.348C23.9015 19.1241 23.7294 18.9279 23.5242 18.7704C23.3191 18.613 23.085 18.4976 22.8353 18.4306C22.5855 18.3637 22.325 18.3466 22.0687 18.3804C21.8123 18.4141 21.5651 18.498 21.3412 18.6273C21.1173 18.7565 20.921 18.9286 20.7636 19.1338C20.6062 19.3389 20.4907 19.573 20.4238 19.8228C20.3569 20.0725 20.3398 20.333 20.3735 20.5893C20.4073 20.8457 20.4912 21.0929 20.6204 21.3168L22.0106 23.723" stroke="white" stroke-width="1.5" stroke-linecap="round" stroke-linejoin="round"/>
<path d="M26.0465 22.8482L24.6564 20.442C24.5215 20.2179 24.4325 19.9692 24.3948 19.7104C24.3571 19.4515 24.3714 19.1878 24.4367 18.9345C24.5021 18.6812 24.6173 18.4435 24.7755 18.2353C24.9338 18.027 25.132 17.8524 25.3585 17.7216C25.585 17.5908 25.8353 17.5065 26.0948 17.4735C26.3542 17.4405 26.6177 17.4595 26.8697 17.5295C27.1217 17.5995 27.3573 17.719 27.5626 17.881C27.7679 18.0431 27.9389 18.2444 28.0656 18.4732L32.1125 25.4732" stroke="white" stroke-width="1.5" stroke-linecap="round" stroke-linejoin="round"/>
<path d="M35.2655 34.5249C36.4602 33.2952 37.2209 31.7092 37.4322 30.0077C37.6434 28.3063 37.2936 26.5824 36.4359 25.0979L34.1291 21.0981C33.9999 20.8741 33.8278 20.6779 33.6226 20.5204C33.4175 20.363 33.1834 20.2476 32.9336 20.1806C32.4293 20.0455 31.8918 20.1162 31.4396 20.3773C30.9874 20.6383 30.6574 21.0684 30.5222 21.5728C30.387 22.0771 30.4577 22.6146 30.7188 23.0668" stroke="white" stroke-width="1.5" stroke-linecap="round" stroke-linejoin="round"/>
<path d="M22.4479 32.3638L20.2363 28.5357C19.9752 28.0834 19.5452 27.7534 19.0408 27.6183C18.5364 27.4831 17.999 27.5538 17.5468 27.8149C17.0945 28.076 16.7645 28.506 16.6294 29.0104C16.4942 29.5148 16.5649 30.0522 16.826 30.5044L17.8749 32.319L20.6782 37.1763C21.7225 38.9851 23.4425 40.305 25.46 40.8456C27.4774 41.3861 29.627 41.1032 31.4358 40.0589C33.2446 39.0146 34.5644 37.2945 35.105 35.2771C35.6456 33.2597 35.3626 31.1101 34.3183 29.3013L32.109 25.4732C31.9859 25.2379 31.8165 25.03 31.611 24.8618C31.4054 24.6937 31.168 24.5689 30.913 24.495C30.658 24.421 30.3907 24.3993 30.1271 24.4314C29.8635 24.4634 29.6091 24.5484 29.3792 24.6813C29.1494 24.8141 28.9487 24.9921 28.7894 25.2046C28.6301 25.417 28.5154 25.6595 28.4523 25.9174C28.3891 26.1753 28.3787 26.4433 28.4218 26.7053C28.4649 26.9673 28.5606 27.2178 28.703 27.4419" stroke="white" stroke-width="1.5" stroke-linecap="round" stroke-linejoin="round"/>
</g>
<defs>
<clipPath id="clip0_488_2432">
<rect width="28" height="28" fill="white" transform="translate(13.5 13.9888)"/>
</clipPath>
</defs>
</svg>
